# xmcd
#
# Track frame offsets: 
#        183
#        17108
#        37373
#        53030
#        71498
#        95798
#        116020
#        133383
#        150345
#        171098
#        190283
#        209978
#        229898
#        253800
#        272360
#        291565
#        306923
#        326013
#        336758
#
# Disc length: 4640 seconds
#
# Revision: 3
# Processed by: cddbd v1.5.2PL0 Copyright (c) Steve Scherf et al.
# Submitted via: ExactAudioCopy v0.99pb5
#
DISCID=32121e13
DTITLE=Various Artist - Still got the blues 2
DYEAR=1993
DGENRE=Blues
TTITLE0=Robert Cray Band - Don't be afraid of the dark
TTITLE1=John Lee Hooker and Bonnie Raitt - I'm in the mood
TTITLE2=Tony Joe White - (You're gonna look) Good in blues
TTITLE3=Rory Block - Lovin' whiskey
TTITLE4=Muddy Waters - Mannish boy
TTITLE5=B.B.King - Sweet sixteen
TTITLE6=Bobby Bland - Walkin' and talkin' and singin' the blues
TTITLE7=Flavium - Nightlife
TTITLE8=Bonnie Raitt - I feel the same
TTITLE9=Stevie Ray Vaughan - Leave my girl alone
TTITLE10=Charlie Musselwhite and John Lee Hooker - That's alright
TTITLE11=Buddy Guy - Black night
TTITLE12=Brendan Croker - I guess that says it all
TTITLE13=Muskee - Brother Booze
TTITLE14=Otis Clay - Leave me and my woman alone
TTITLE15=Ry Cooder - Dark end of the street
TTITLE16=Blues Brothers - One track train
TTITLE17=J.J.Cale - After midnight
TTITLE18=John Lee Hooker - Boom Boom
EXTD=
EXTT0=
EXTT1=
EXTT2=
EXTT3=
EXTT4=
EXTT5=
EXTT6=
EXTT7=
EXTT8=
EXTT9=
EXTT10=
EXTT11=
EXTT12=
EXTT13=
EXTT14=
EXTT15=
EXTT16=
EXTT17=
EXTT18=
PLAYORDER=
